<?xml version="1.0" encoding="UTF-8"?>
<svg width="15px" height="23px" viewBox="0 0 15 23" version="1.1" xmlns="http://www.w3.org/2000/svg" xmlns:xlink="http://www.w3.org/1999/xlink">
    <!-- Generator: Sketch 53.2 (72643) - https://sketchapp.com -->
    <title>Path</title>
    <desc>Created with Sketch.</desc>
    <g id="HiFi-v3" stroke="none" stroke-width="1" fill="none" fill-rule="evenodd">
        <g id="2A" transform="translate(-39.000000, -484.000000)" fill="#FFFFFF">
            <g id="Group" transform="translate(-194.000000, -121.000000)">
                <g id="Bitmap" transform="translate(218.000000, 595.000000)">
                    <path d="M21.3756555,31.8724715 L29.4873596,20.2892226 C29.804164,19.8368362 29.6942531,19.2132839 29.2418667,18.8964795 C29.073751,18.7787488 28.8734815,18.7155975 28.6682416,18.7155975 L23.9710214,18.7155975 L24.6651177,11.6654398 C24.7192291,11.1158123 24.317534,10.6263852 23.7679065,10.5722737 C23.3913467,10.5352009 23.0261116,10.7138402 22.8242019,11.0338467 L15.274193,22.9998508 C14.9794852,23.466933 15.1192223,24.0844858 15.5863044,24.3791936 C15.7460383,24.4799784 15.9310485,24.5334665 16.1199201,24.5334665 L20.9604805,24.5334665 L19.5780351,31.0926113 C19.4641345,31.6330233 19.8098904,32.1634484 20.3503024,32.2773489 C20.7423328,32.3599756 21.1458364,32.2006457 21.3756555,31.8724715 Z" id="Path"></path>
                </g>
            </g>
        </g>
    </g>
</svg>