<?xml version="1.0" encoding="UTF-8"?>
<svg height="339" viewBox="0 0 366 339" width="366" xmlns="http://www.w3.org/2000/svg"><g fill="none" fill-rule="evenodd" transform="translate(5 5)"><path d="m168.129619 46.3601947 10.472185.0137952.013465 10.2153641 9.919077.0130666.014659 11.1212551 10.685915.0140768.012526 9.5032602 10.997408.0144871.011373 8.6290641" stroke="#f34e4e" stroke-linecap="round" stroke-linejoin="round" stroke-width="10" transform="matrix(.62932039 .77714596 -.77714596 .62932039 121.516699 -122.520298)"/><path d="m209.450291 286.858403 15.80049.001195.001397 18.225835 14.965957.001132.001521 19.842089 16.122967.001219" stroke="#f34e4e" stroke-linecap="round" stroke-linejoin="round" stroke-width="10" transform="matrix(-.98480775 -.17364818 .17364818 -.98480775 409.136734 647.583102)"/><g fill-rule="nonzero"><circle cx="255" cy="208" fill="#f3bb4e" r="12"/><circle cx="344" cy="291" fill="#f3bb4e" r="8"/><circle cx="50" cy="329" fill="#f3bb4e" r="5"/><circle cx="97" cy="153" fill="#f3894e" r="8"/><circle cx="127" cy="283" fill="#f34e4e" r="13"/><circle cx="223" cy="106" fill="#f3894e" r="5"/></g><path d="m2 248h6.95362158c1.93299662 0 3.50000002 1.567003 3.50000002 3.5v3.270344c0 1.932996 1.5670034 3.5 3.5 3.5h2.9014937c1.9329966 0 3.5 1.567003 3.5 3.5v4.18111c0 1.932997 1.5670033 3.5 3.5 3.5h3.6669725c1.9329966 0 3.5 1.567004 3.5 3.5v5.213724c0 1.932996 1.5670033 3.5 3.5 3.5h3.9779122c1.9329966 0 3.5 1.567003 3.5 3.5v7.834822" stroke="#f3894e" stroke-linecap="round" stroke-linejoin="round" stroke-width="10" transform="matrix(0 1 -1 0 293.5 247.5)"/><path d="m357.31156 115.573455c-21.355977 34.958624-57.249999 28.52203-44.090601 7.790605 13.159397-20.731425 34.045333 18.070406 8.283496 27.174043-17.174558 6.069091-34.231528 4.201454-51.17091-5.60291" fill-rule="nonzero" stroke="#f3894e" stroke-linecap="round" stroke-width="10" transform="matrix(-.98768834 .15643447 -.15643447 -.98768834 644.868188 218.840035)"/><path d="m62.3000795 159.747691c-27.828869.003913-35.4719798 22.803463-35.4743245 39.432096" fill-rule="nonzero" stroke="#f34e4e" stroke-linecap="round" stroke-width="10" transform="matrix(.05233596 -.99862953 .99862953 .05233596 -136.987116 214.573178)"/><path d="m39 0c20.934465 20.3202756 50.8665003 30.0936776 50.8665003 57.951459 0 27.8577813 24.1849227 32.0017448 29.6006657 14.1068915 5.415743-17.8948532-32.4337494-19.078111-24.0609752 13.5997811 5.5818492 21.7852614 13.6021742 31.0114284 24.0609752 27.6785004" fill-rule="nonzero" stroke="#f3bb4e" stroke-linecap="round" stroke-width="10"/></g></svg>