<svg width="128" height="32" viewBox="0 0 128 32" xmlns="http://www.w3.org/2000/svg">
<path d="M4.91 31.642H0V.318l4.91.318v31.006zm5.58-29.138c1.545 0 2.812 1.272 2.812 2.823 0 1.55-1.267 2.822-2.81 2.822-1.545 0-2.812-1.273-2.812-2.823s1.267-2.823 2.81-2.823zm2.456 29.138h-4.91V9.302l4.91.278v22.062zm11.718-17.848v4.93h-3.682V31.62h-4.91V7.116C16.073 3.38 19.163 0 22.805 0c1.227 0 2.217.358 2.454.517l-.198 4.73h-2.256c-.99 0-1.822.835-1.822 1.868v6.68h3.682zm1.986 1.987c0-3.735 3.01-6.796 6.77-6.796 3.722 0 6.73 3.06 6.73 6.797v4.772c0 1.39-1.108 2.464-2.454 2.464H31.56v2.147c0 1.033.83 1.868 1.86 1.868h4.71l.16 4.175-4.434.676c-4.276.716-7.206-2.98-7.206-6.717V15.78zm4.91 2.307h3.68V15.78c0-1.032-.83-1.867-1.82-1.867-1.03 0-1.86.835-1.86 1.868v2.307zm12.79 13.555V.517h3.166v9.46c.87-.278 2.256-.397 3.207-.397 3.365 0 5.978 3.06 5.978 6.52V31.64h-3.087V16.1c0-1.71-1.386-3.062-3.088-3.062h-3.01v18.604H44.35zm23.938-16.06c0-1.788-.832-3.22-3.088-2.98h.04c-1.267.04-2.89.198-4.237.278-.04-1.153-.08-1.59-.118-2.465 1.068-.398 2.612-.795 3.92-.835 3.958-.08 6.57 3.14 6.57 6.6v9.46c0 3.418-2.73 6.24-6.136 6.24-3.405 0-6.216-2.822-6.216-6.24v-1.948c0-3.42 2.335-6.003 6.215-6.003 1.464 0 2.216.158 3.048.397v-2.505zm0 10.058v-5.367h-3.05c-1.7 0-3.047 1.352-3.047 3.06v2.307c0 1.71 1.347 3.1 3.05 3.1 1.702 0 3.048-1.39 3.048-3.1zM80.246 9.58c3.405 0 6.215 2.783 6.215 6.24v.4c-1.226.038-2.216.038-3.126.078v-.477c0-1.67-1.386-3.06-3.088-3.06-1.663 0-3.01 1.39-3.01 3.06v9.94c0 1.748 1.347 3.06 3.01 3.06 1.662 0 3.048-1.272 3.088-2.942 1.544.12 3.01.2 3.127.2C86.304 29.375 83.533 32 80.247 32c-3.405 0-6.177-2.783-6.177-6.24v-9.94c0-3.457 2.77-6.24 6.176-6.24zM88.963.596h3.167v31.046h-3.167V.596zm9.977 31.046l-6.018-10.534c-.594-1.034-.594-1.153.12-2.385l5.304-8.825h3.603l-5.98 10.176 6.454 11.568H98.94zm4.15-15.78c0-3.46 2.772-6.282 6.217-6.282 3.404 0 6.176 2.822 6.176 6.28v4.89c0 .915-.713 1.59-1.584 1.59h-7.642v3.38c0 1.708 1.346 3.1 3.05 3.1h3.997c.04 1.033.08 1.75.16 2.464l-3.802.597c-3.88.676-6.572-2.703-6.572-6.16v-9.86zm3.168 3.338h6.097v-3.34c0-1.71-1.386-3.1-3.048-3.1-1.703 0-3.05 1.39-3.05 3.1v3.34zm15.17 12.442h-3.167V16.14c0-3.46 2.693-6.68 6.652-6.6 1.346.04 2.178.358 3.088.795-.04.954-.08 1.75-.12 2.465l-3.443-.08c-1.663 0-3.01 1.79-3.01 3.42V31.64z" fill="#94B330" fill-rule="evenodd"></path>
</svg>