<svg xmlns="http://www.w3.org/2000/svg" xmlns:xlink="http://www.w3.org/1999/xlink">
    <defs></defs>
    <symbol viewBox="0 0 53 49" id="twitter-svg">
    	<title>Twitter</title>
    	<path d="M45 6.9c-1.6 1-3.3 1.6-5.2 2-1.5-1.6-3.6-2.6-5.9-2.6-4.5 0-8.2 3.7-8.2 8.3 0 .6.1 1.3.2 1.9-6.8-.4-12.8-3.7-16.8-8.7C8.4 9 8 10.5 8 12c0 2.8 1.4 5.4 3.6 6.9-1.3-.1-2.6-.5-3.7-1.1v.1c0 4 2.8 7.4 6.6 8.1-.7.2-1.5.3-2.2.3-.5 0-1 0-1.5-.1 1 3.3 4 5.7 7.6 5.7-2.8 2.2-6.3 3.6-10.2 3.6-.6 0-1.3-.1-1.9-.1 3.6 2.3 7.9 3.7 12.5 3.7 15.1 0 23.3-12.6 23.3-23.6 0-.3 0-.7-.1-1 1.6-1.2 3-2.7 4.1-4.3-1.4.6-3 1.1-4.7 1.3 1.7-1 3-2.7 3.6-4.6" class="icon"></path>
    </symbol>
    <symbol viewBox="0 0 56 55" id="facebook-svg">
    	<title>Facebook</title>
    	<path d="M47.5 43c0 1.2-.9 2.1-2.1 2.1h-10V30h5.1l.8-5.9h-5.9v-3.7c0-1.7.5-2.9 3-2.9h3.1v-5.3c-.6 0-2.4-.2-4.6-.2-4.5 0-7.5 2.7-7.5 7.8v4.3h-5.1V30h5.1v15.1H10.7c-1.2 0-2.2-.9-2.2-2.1V8.3c0-1.2 1-2.2 2.2-2.2h34.7c1.2 0 2.1 1 2.1 2.2V43" class="icon"></path>
    </symbol>
    <symbol viewBox="0 0 54 54" id="instagram-svg">
    	<title>Instagram</title>
    	<path d="M27.2 6.1c-5.1 0-5.8 0-7.8.1s-3.4.4-4.6.9c-1.2.5-2.3 1.1-3.3 2.2-1.1 1-1.7 2.1-2.2 3.3-.5 1.2-.8 2.6-.9 4.6-.1 2-.1 2.7-.1 7.8s0 5.8.1 7.8.4 3.4.9 4.6c.5 1.2 1.1 2.3 2.2 3.3 1 1.1 2.1 1.7 3.3 2.2 1.2.5 2.6.8 4.6.9 2 .1 2.7.1 7.8.1s5.8 0 7.8-.1 3.4-.4 4.6-.9c1.2-.5 2.3-1.1 3.3-2.2 1.1-1 1.7-2.1 2.2-3.3.5-1.2.8-2.6.9-4.6.1-2 .1-2.7.1-7.8s0-5.8-.1-7.8-.4-3.4-.9-4.6c-.5-1.2-1.1-2.3-2.2-3.3-1-1.1-2.1-1.7-3.3-2.2-1.2-.5-2.6-.8-4.6-.9-2-.1-2.7-.1-7.8-.1zm0 3.4c5 0 5.6 0 7.6.1 1.9.1 2.9.4 3.5.7.9.3 1.6.7 2.2 1.4.7.6 1.1 1.3 1.4 2.2.3.6.6 1.6.7 3.5.1 2 .1 2.6.1 7.6s0 5.6-.1 7.6c-.1 1.9-.4 2.9-.7 3.5-.3.9-.7 1.6-1.4 2.2-.7.7-1.3 1.1-2.2 1.4-.6.3-1.7.6-3.5.7-2 .1-2.6.1-7.6.1-5.1 0-5.7 0-7.7-.1-1.8-.1-2.9-.4-3.5-.7-.9-.3-1.5-.7-2.2-1.4-.7-.7-1.1-1.3-1.4-2.2-.3-.6-.6-1.7-.7-3.5 0-2-.1-2.6-.1-7.6 0-5.1.1-5.7.1-7.7.1-1.8.4-2.8.7-3.5.3-.9.7-1.5 1.4-2.2.7-.6 1.3-1.1 2.2-1.4.6-.3 1.6-.6 3.5-.7h7.7zm0 5.8c-5.4 0-9.7 4.3-9.7 9.7 0 5.4 4.3 9.7 9.7 9.7 5.4 0 9.7-4.3 9.7-9.7 0-5.4-4.3-9.7-9.7-9.7zm0 16c-3.5 0-6.3-2.8-6.3-6.3s2.8-6.3 6.3-6.3 6.3 2.8 6.3 6.3-2.8 6.3-6.3 6.3zm12.4-16.4c0 1.3-1.1 2.3-2.3 2.3-1.3 0-2.3-1-2.3-2.3 0-1.2 1-2.3 2.3-2.3 1.2 0 2.3 1.1 2.3 2.3z" class="icon"></path>
    </symbol>
    <!-- define view locations for each icon -->
    <view id="twitter-svg-view" viewBox="0 0 53 49" />
    <view id="facebook-svg-view" viewBox="0 100 56 55" />
    <view id="instagram-svg-view" viewBox="0 200 54 54" />
    <use xlink:href="#twitter-svg" width="53" height="49" x="0" y="0" id="twitter"></use>
    <use xlink:href="#facebook-svg" width="56" height="55" x="0" y="100" id="facebook"></use>
    <use xlink:href="#instagram-svg" width="54" height="54" x="0" y="200" id="instagram"></use>
</svg>