<?xml version="1.0" encoding="UTF-8"?>
<svg width="169px" height="279px" viewBox="0 0 169 279" version="1.1" xmlns="http://www.w3.org/2000/svg" xmlns:xlink="http://www.w3.org/1999/xlink">
    <!-- Generator: Sketch 52.3 (67297) - http://www.bohemiancoding.com/sketch -->
    <title>Confetti</title>
    <desc>Created with Sketch.</desc>
    <g id="Article" stroke="none" stroke-width="1" fill="none" fill-rule="evenodd">
        <g id="Article---All-sections---Grain" transform="translate(-520.000000, -1977.000000)">
            <g id="1.-Opening" transform="translate(-354.000000, 0.000000)">
                <g id="Confetti" transform="translate(945.541248, 2120.769595) rotate(205.000000) translate(-945.541248, -2120.769595) translate(822.541248, 2011.769595)">
                    <path d="M109.532797,72.3279101 C109.532797,76.323 106.293709,79.5620881 102.298619,79.5620881 C98.3028849,79.5620881 95.0637968,76.323 95.0637968,72.3279101 C95.0637968,68.3321762 98.3028849,65.0937321 102.298619,65.0937321 C106.293709,65.0937321 109.532797,68.3321762 109.532797,72.3279101 Z" id="Stroke-3" stroke="#FFFFFF" transform="translate(102.298297, 72.327910) rotate(-108.000000) translate(-102.298297, -72.327910) "></path>
                    <path d="M124.717589,106.834584 C124.717589,108.62964 123.262316,110.084913 121.46726,110.084913 C119.672203,110.084913 118.217589,108.62964 118.217589,106.834584 C118.217589,105.039527 119.672203,103.584254 121.46726,103.584254 C123.262316,103.584254 124.717589,105.039527 124.717589,106.834584" id="Fill-51-Copy-3" fill="#FFFFFF" transform="translate(121.467589, 106.834584) rotate(-108.000000) translate(-121.467589, -106.834584) "></path>
                    <polygon id="Stroke-53-Copy" fill="#FFFFFF" transform="translate(231.136646, 202.872267) rotate(-3.000000) translate(-231.136646, -202.872267) " points="244.599646 202.872267 231.136646 216.335267 217.673646 202.872267 231.136646 189.409267"></polygon>
                    <path d="M55.1003368,139.984884 C55.1003368,146.188884 50.0703368,151.218884 43.8663368,151.218884 C37.6613368,151.218884 32.6313368,146.188884 32.6313368,139.984884 C32.6313368,133.779884 37.6613368,128.750884 43.8663368,128.750884 C50.0703368,128.750884 55.1003368,133.779884 55.1003368,139.984884 Z" id="Stroke-3" stroke="#FFFFFF" transform="translate(43.865837, 139.984884) rotate(-408.000000) translate(-43.865837, -139.984884) "></path>
                    <path d="M183.852334,94.5041965 C183.852334,97.2301965 181.642334,99.4401965 178.916334,99.4401965 C176.190334,99.4401965 173.981334,97.2301965 173.981334,94.5041965 C173.981334,91.7781965 176.190334,89.5681965 178.916334,89.5681965 C181.642334,89.5681965 183.852334,91.7781965 183.852334,94.5041965" id="Fill-51" fill="#FFFFFF" transform="translate(178.916834, 94.504197) rotate(-408.000000) translate(-178.916834, -94.504197) "></path>
                    <path d="M39.906157,6.97061996 C39.906157,9.69661996 37.696157,11.90662 34.970157,11.90662 C32.244157,11.90662 30.035157,9.69661996 30.035157,6.97061996 C30.035157,4.24461996 32.244157,2.03461996 34.970157,2.03461996 C37.696157,2.03461996 39.906157,4.24461996 39.906157,6.97061996" id="Fill-51-Copy-2" fill="#FFFFFF" transform="translate(34.970657, 6.970620) rotate(-408.000000) translate(-34.970657, -6.970620) "></path>
                    <polygon id="Stroke-53" fill="#FFFFFF" transform="translate(19.764990, 87.533577) rotate(-42.000000) translate(-19.764990, -87.533577) " points="33.2279905 87.5335766 19.7649905 100.996577 6.3019905 87.5335766 19.7649905 74.0705766"></polygon>
                </g>
            </g>
        </g>
    </g>
</svg>