<?xml version="1.0" encoding="UTF-8"?>
<svg width="390px" height="336px" viewBox="0 0 390 336" version="1.1" xmlns="http://www.w3.org/2000/svg" xmlns:xlink="http://www.w3.org/1999/xlink">
    <!-- Generator: Sketch 52.3 (67297) - http://www.bohemiancoding.com/sketch -->
    <title>confetti</title>
    <desc>Created with Sketch.</desc>
    <g id="Article" stroke="none" stroke-width="1" fill="none" fill-rule="evenodd">
        <g id="Article---All-sections---Grain" transform="translate(-438.000000, -4097.000000)">
            <g id="2.-Education" transform="translate(-123.000000, 4074.000000)">
                <g id="confetti" transform="translate(559.000000, 21.000000)">
                    <path d="M363.137094,229.570675 C363.137094,235.774675 358.107094,240.804675 351.903094,240.804675 C345.698094,240.804675 340.668094,235.774675 340.668094,229.570675 C340.668094,223.365675 345.698094,218.336675 351.903094,218.336675 C358.107094,218.336675 363.137094,223.365675 363.137094,229.570675 Z" id="Stroke-3" stroke="#FF005B" transform="translate(351.902594, 229.570675) rotate(-108.000000) translate(-351.902594, -229.570675) "></path>
                    <path d="M20.7445602,83.5657392 C20.7445602,88.6347392 16.6355602,92.7447392 11.5655602,92.7447392 C6.49656025,92.7447392 2.38756025,88.6347392 2.38756025,83.5657392 C2.38756025,78.4967392 6.49656025,74.3867392 11.5655602,74.3867392 C16.6355602,74.3867392 20.7445602,78.4967392 20.7445602,83.5657392" id="Fill-5" fill="#5517D0" transform="translate(11.566060, 83.565739) rotate(-108.000000) translate(-11.566060, -83.565739) "></path>
                    <path d="M278.74456,11.5657392 C278.74456,16.6347392 274.63556,20.7447392 269.56556,20.7447392 C264.49656,20.7447392 260.38756,16.6347392 260.38756,11.5657392 C260.38756,6.49673923 264.49656,2.38673923 269.56556,2.38673923 C274.63556,2.38673923 278.74456,6.49673923 278.74456,11.5657392" id="Fill-5" fill="#5517D0" transform="translate(269.566060, 11.565739) rotate(-108.000000) translate(-269.566060, -11.565739) "></path>
                    <path d="M385.155068,119.219247 C385.155068,121.945247 382.945068,124.155247 380.219068,124.155247 C377.493068,124.155247 375.284068,121.945247 375.284068,119.219247 C375.284068,116.493247 377.493068,114.283247 380.219068,114.283247 C382.945068,114.283247 385.155068,116.493247 385.155068,119.219247" id="Fill-51" fill="#FF005B" transform="translate(380.219568, 119.219247) rotate(-108.000000) translate(-380.219568, -119.219247) "></path>
                    <path d="M217.784068,103.533577 C217.784068,105.328633 216.328795,106.783906 214.533739,106.783906 C212.738683,106.783906 211.284068,105.328633 211.284068,103.533577 C211.284068,101.73852 212.738683,100.283247 214.533739,100.283247 C216.328795,100.283247 217.784068,101.73852 217.784068,103.533577" id="Fill-51-Copy-3" fill="#FF005B" transform="translate(214.534068, 103.533577) rotate(-108.000000) translate(-214.534068, -103.533577) "></path>
                    <polygon id="Stroke-53" fill="#FF005B" transform="translate(56.964370, 324.964370) rotate(-108.000000) translate(-56.964370, -324.964370) " points="70.4273697 324.96437 56.9643697 338.42737 43.5013697 324.96437 56.9643697 311.50137"></polygon>
                    <polygon id="Stroke-53-Copy" fill="#FF005B" transform="translate(134.149148, 143.149148) rotate(-3.000000) translate(-134.149148, -143.149148) " points="147.612148 143.149148 134.149148 156.612148 120.686148 143.149148 134.149148 129.686148"></polygon>
                    <polygon id="Stroke-9" stroke="#027AF5" transform="translate(380.255842, 37.255842) rotate(-108.000000) translate(-380.255842, -37.255842) " points="391.569342 37.2563417 380.256342 48.5693417 368.942342 37.2563417 380.256342 25.9423417"></polygon>
                    <path d="M69.4717617,141.788678 C69.4717617,147.992678 64.4417617,153.022678 58.2377617,153.022678 C52.0327617,153.022678 47.0027617,147.992678 47.0027617,141.788678 C47.0027617,135.583678 52.0327617,130.554678 58.2377617,130.554678 C64.4417617,130.554678 69.4717617,135.583678 69.4717617,141.788678 Z" id="Stroke-3" stroke="#FF005B" transform="translate(58.237262, 141.788678) rotate(-408.000000) translate(-58.237262, -141.788678) "></path>
                    <path d="M233.906157,212.97062 C233.906157,215.69662 231.696157,217.90662 228.970157,217.90662 C226.244157,217.90662 224.035157,215.69662 224.035157,212.97062 C224.035157,210.24462 226.244157,208.03462 228.970157,208.03462 C231.696157,208.03462 233.906157,210.24462 233.906157,212.97062" id="Fill-51" fill="#FF005B" transform="translate(228.970657, 212.970620) rotate(-408.000000) translate(-228.970657, -212.970620) "></path>
                    <path d="M85.906157,22.97062 C85.906157,25.69662 83.696157,27.90662 80.970157,27.90662 C78.244157,27.90662 76.035157,25.69662 76.035157,22.97062 C76.035157,20.24462 78.244157,18.03462 80.970157,18.03462 C83.696157,18.03462 85.906157,20.24462 85.906157,22.97062" id="Fill-51-Copy-2" fill="#FF005B" transform="translate(80.970657, 22.970620) rotate(-408.000000) translate(-80.970657, -22.970620) "></path>
                    <polygon id="Stroke-53" fill="#FF005B" transform="translate(164.396073, 289.277589) rotate(-408.000000) translate(-164.396073, -289.277589) " points="177.859073 289.277589 164.396073 302.740589 150.933073 289.277589 164.396073 275.814589"></polygon>
                    <polygon id="Stroke-9" stroke="#027AF5" transform="translate(285.977807, 152.446274) rotate(-408.000000) translate(-285.977807, -152.446274) " points="297.291307 152.446774 285.978307 163.759774 274.664307 152.446774 285.978307 141.132774"></polygon>
                    <polygon id="Stroke-9" stroke="#027AF5" fill="#027AF5" transform="translate(285.977807, 152.446274) rotate(-408.000000) translate(-285.977807, -152.446274) " points="297.291307 152.446774 285.978307 163.759774 274.664307 152.446774 285.978307 141.132774"></polygon>
                </g>
            </g>
        </g>
    </g>
</svg>