<?xml version="1.0" encoding="UTF-8"?>
<svg width="169px" height="147px" viewBox="0 0 169 147" version="1.1" xmlns="http://www.w3.org/2000/svg" xmlns:xlink="http://www.w3.org/1999/xlink">
    <!-- Generator: Sketch 52.3 (67297) - http://www.bohemiancoding.com/sketch -->
    <title>Confetti</title>
    <desc>Created with Sketch.</desc>
    <g id="Article" stroke="none" stroke-width="1" fill="none" fill-rule="evenodd">
        <g id="Article---All-sections---Grain" transform="translate(-1073.000000, -8223.000000)">
            <g id="2.-Education" transform="translate(-123.000000, 4074.000000)">
                <g id="Web-pages" transform="translate(132.000000, 3544.000000)">
                    <g id="Group-Copy-2" transform="translate(736.000000, 505.000000)">
                        <g id="Confetti" transform="translate(416.364601, 190.536570) rotate(17.000000) translate(-416.364601, -190.536570) translate(325.364601, 112.536570)">
                            <path d="M105.532797,72.3279101 C105.532797,76.323 102.293709,79.5620881 98.2986188,79.5620881 C94.3028849,79.5620881 91.0637968,76.323 91.0637968,72.3279101 C91.0637968,68.3321762 94.3028849,65.0937321 98.2986188,65.0937321 C102.293709,65.0937321 105.532797,68.3321762 105.532797,72.3279101 Z" id="Stroke-3" stroke="#FF005B" transform="translate(98.298297, 72.327910) rotate(-108.000000) translate(-98.298297, -72.327910) "></path>
                            <path d="M120.717589,106.834584 C120.717589,108.62964 119.262316,110.084913 117.46726,110.084913 C115.672203,110.084913 114.217589,108.62964 114.217589,106.834584 C114.217589,105.039527 115.672203,103.584254 117.46726,103.584254 C119.262316,103.584254 120.717589,105.039527 120.717589,106.834584" id="Fill-51-Copy-3" fill="#FF005B" transform="translate(117.467589, 106.834584) rotate(-108.000000) translate(-117.467589, -106.834584) "></path>
                            <polygon id="Stroke-53-Copy" fill="#FF005B" transform="translate(121.563141, 28.090388) rotate(-3.000000) translate(-121.563141, -28.090388) " points="135.026141 28.0903883 121.563141 41.5533883 108.100141 28.0903883 121.563141 14.6273883"></polygon>
                            <path d="M51.1003368,139.984884 C51.1003368,146.188884 46.0703368,151.218884 39.8663368,151.218884 C33.6613368,151.218884 28.6313368,146.188884 28.6313368,139.984884 C28.6313368,133.779884 33.6613368,128.750884 39.8663368,128.750884 C46.0703368,128.750884 51.1003368,133.779884 51.1003368,139.984884 Z" id="Stroke-3" stroke="#FF005B" transform="translate(39.865837, 139.984884) rotate(-408.000000) translate(-39.865837, -139.984884) "></path>
                            <path d="M179.852334,94.5041965 C179.852334,97.2301965 177.642334,99.4401965 174.916334,99.4401965 C172.190334,99.4401965 169.981334,97.2301965 169.981334,94.5041965 C169.981334,91.7781965 172.190334,89.5681965 174.916334,89.5681965 C177.642334,89.5681965 179.852334,91.7781965 179.852334,94.5041965" id="Fill-51" fill="#FF005B" transform="translate(174.916834, 94.504197) rotate(-408.000000) translate(-174.916834, -94.504197) "></path>
                            <path d="M35.906157,6.97061996 C35.906157,9.69661996 33.696157,11.90662 30.970157,11.90662 C28.244157,11.90662 26.035157,9.69661996 26.035157,6.97061996 C26.035157,4.24461996 28.244157,2.03461996 30.970157,2.03461996 C33.696157,2.03461996 35.906157,4.24461996 35.906157,6.97061996" id="Fill-51-Copy-2" fill="#FF005B" transform="translate(30.970657, 6.970620) rotate(-408.000000) translate(-30.970657, -6.970620) "></path>
                            <polygon id="Stroke-53" fill="#FF005B" transform="translate(15.764990, 87.533577) rotate(-8.000000) translate(-15.764990, -87.533577) " points="29.2279905 87.5335766 15.7649905 100.996577 2.3019905 87.5335766 15.7649905 74.0705766"></polygon>
                        </g>
                    </g>
                </g>
            </g>
        </g>
    </g>
</svg>