<?xml version="1.0" encoding="UTF-8"?>
<svg width="494px" height="316px" viewBox="0 0 494 316" version="1.1" xmlns="http://www.w3.org/2000/svg" xmlns:xlink="http://www.w3.org/1999/xlink">
    <!-- Generator: Sketch 52.3 (67297) - http://www.bohemiancoding.com/sketch -->
    <title>Group 7</title>
    <desc>Created with Sketch.</desc>
    <g id="Article" stroke="none" stroke-width="1" fill="none" fill-rule="evenodd">
        <g id="Article---All-sections---Grain" transform="translate(-409.000000, -7717.000000)" fill="#FF005B" fill-rule="nonzero">
            <g id="2.-Education" transform="translate(-123.000000, 4074.000000)">
                <g id="Web-pages" transform="translate(132.000000, 3544.000000)">
                    <g id="Group-Copy-3" transform="translate(339.000000, 0.000000)">
                        <g id="Group-7" transform="translate(61.000000, 99.000000)">
                            <polygon id="Rectangle" points="440 40 484 40 484 46 440 46"></polygon>
                            <rect id="Rectangle" x="0" y="0" width="304" height="6"></rect>
                            <polygon id="Rectangle" points="440 0 474 0 474 6 440 6"></polygon>
                            <polygon id="Rectangle" points="440 20 494 20 494 26 440 26"></polygon>
                            <polygon id="Rectangle" points="440 60 474 60 474 66 440 66"></polygon>
                            <polygon id="Rectangle" points="440 80 494 80 494 86 440 86"></polygon>
                            <circle id="Oval" opacity="0.375953311" cx="399" cy="228" r="88"></circle>
                            <path d="M399,316 C447.601058,316 487,276.601058 487,228 C487,179.398942 447.601058,140 399,140" id="Path"></path>
                            <polygon id="Rectangle" points="-5.1159077e-13 20 284 20 284 26 -5.1159077e-13 26"></polygon>
                        </g>
                    </g>
                </g>
            </g>
        </g>
    </g>
</svg>