<?xml version="1.0" encoding="UTF-8"?>
<svg width="538px" height="204px" viewBox="0 0 538 204" version="1.1" xmlns="http://www.w3.org/2000/svg" xmlns:xlink="http://www.w3.org/1999/xlink">
    <!-- Generator: Sketch 52.3 (67297) - http://www.bohemiancoding.com/sketch -->
    <title>Group 20</title>
    <desc>Created with Sketch.</desc>
    <g id="Article" stroke="none" stroke-width="1" fill="none" fill-rule="evenodd">
        <g id="Article---All-sections---Grain" transform="translate(-594.000000, -7900.000000)" stroke="#5517D0">
            <g id="2.-Education" transform="translate(-123.000000, 4074.000000)">
                <g id="Web-pages" transform="translate(132.000000, 3544.000000)">
                    <g id="Group-26" transform="translate(559.000000, 90.000000)">
                        <g id="Group-Copy-3" transform="translate(18.000000, 26.000000)">
                            <g id="Group-20" transform="translate(15.000000, 168.000000)">
                                <g id="MeetYourChart-JillPatterson" transform="translate(0.000000, 66.000000)" opacity="0.3101516" stroke-width="16">
                                    <path d="M1,3 L1,134" id="Path"></path>
                                    <path d="M19,7 L19,134" id="Path"></path>
                                    <path d="M37,0 L37,134" id="Path"></path>
                                    <path d="M55,9 L55,134" id="Path"></path>
                                    <path d="M73,17 L73,134" id="Path"></path>
                                    <path d="M91,26 L91,134" id="Path"></path>
                                    <path d="M109,24 L109,134" id="Path"></path>
                                    <path d="M127,16 L127,134" id="Path"></path>
                                    <path d="M145,45 L145,134" id="Path"></path>
                                    <path d="M163,61 L163,134" id="Path"></path>
                                    <path d="M181,73 L181,134" id="Path"></path>
                                    <path d="M199,84 L199,134" id="Path"></path>
                                    <path d="M217,63 L217,134" id="Path"></path>
                                    <path d="M235,77 L235,134" id="Path"></path>
                                    <path d="M253,104 L253,134" id="Path"></path>
                                    <path d="M271,103 L271,134" id="Path"></path>
                                    <path d="M289,101 L289,134" id="Path"></path>
                                    <path d="M307,115 L307,134" id="Path"></path>
                                    <path d="M325,65 L325,134" id="Path"></path>
                                    <path d="M343,33 L343,134" id="Path"></path>
                                    <path d="M361,28 L361,134" id="Path"></path>
                                    <path d="M379,34 L379,134" id="Path"></path>
                                    <path d="M397,15 L397,134" id="Path"></path>
                                    <path d="M415,21 L415,134" id="Path"></path>
                                    <path d="M433,45 L433,134" id="Path"></path>
                                    <path d="M451,52 L451,134" id="Path"></path>
                                    <path d="M469,47 L469,134" id="Path"></path>
                                    <path d="M487,15 L487,134" id="Path"></path>
                                    <path d="M505,22 L505,134" id="Path"></path>
                                    <path d="M523,42 L523,134" id="Path"></path>
                                </g>
                                <g id="MeetYourChart-HeidiRobinson" stroke-linecap="round" stroke-linejoin="round" stroke-width="3.5">
                                    <polyline id="chart" points="0.59311651 98.8509403 4.95452332 113.797187 9.31688178 125.839927 13.6782886 124.877393 18.0396954 140.785828 22.4020539 152.576179 26.7634607 156.007973 31.1248675 144.295066 35.487226 161.456801 39.8486328 166.745553 44.2100396 151.5037 48.572398 146.564835 52.9338049 149.62669 57.2952117 146.014421 61.6575701 147.458568 66.0189769 147.172297 70.3803838 148.071561 74.7427422 138.445528 79.104149 150.159817 83.4655558 145.88062 87.8279143 151.689016 92.1893211 158.289151 96.5507279 148.123421 100.913086 146.131972 105.274493 148.170788 109.6359 150.039501 113.998258 143.427956 118.359665 133.510466 122.721072 129.17284 127.083431 138.961369 131.444837 145.338849 135.806244 150.402525 140.168603 154.28689 144.530009 169.003221 148.891416 175.310516 153.253775 177.375262 157.615182 177.365236 161.976588 187.360516 166.338947 179.802342 170.700354 186.206098 175.06176 182.386732 179.424119 169.398745 183.785526 170.260669 188.146933 161.168456 192.509291 152.540568 196.870698 153.920753 201.232105 161.086516 205.594463 172.593362 209.95587 178.323275 214.317277 200 218.679635 196.541584 223.041042 195.630911 227.402449 189.749911 231.764807 175.850558 236.126214 175.278708 240.487621 168.7007 244.849979 170.555929 249.211386 172.408392 253.572793 150.626563 257.935151 132.013422 262.296558 127.231867 266.657965 118.262045 271.020324 114.669138 275.38173 96.4594717 279.743137 96.4691524 284.105496 87.3745188 288.466902 88.737763 292.828309 81.4454607 297.190668 76.3672635 301.552075 82.0719377 305.913481 72.3981932 310.27584 65.0782318 314.637247 59.760784 318.998653 65.641093 323.361012 65.0032067 327.722419 53.9029479 332.083826 41.7001312 336.446184 48.1215199 340.807591 35.4446966 345.168998 30.887872 349.531356 13.558109 353.892763 23.5257307 358.25417 33.324978 362.616528 22.5154847 366.977935 15.1640612 371.339342 8.5642718 375.7017 4.90913145 380.063107 4.14885397 384.424514 7.41573073 388.786872 0 393.148279 2.35309167 397.509686 9.71419582 401.872044 14.4995531 406.233451 23.9298982 410.594858 21.0277748 414.957216 16.9636267 419.318623 22.082621 423.68003 18.9132423 428.042389 6.75087688 432.403795 5.63690959 436.765202 19.1410835 441.127561 17.1340754 445.488967 12.6425952 449.850374 10.2006489 454.212733 15.3773815 458.57414 8.19675248 462.935546 23.7532262 467.297905 33.2623995 471.659312 32.9574587 476.020718 12.9326693 480.383077 19.0003682 484.744484 30.7720499 489.105891 31.698973 493.468249 12.7957571 497.829656 18.095918 502.191063 25.291068 506.553421 12.0351339 510.914828 21.5640142 515.276235 30.8135384 519.638593 19.9960932 524 30.5238101"></polyline>
                                </g>
                            </g>
                        </g>
                    </g>
                </g>
            </g>
        </g>
    </g>
</svg>