<?xml version="1.0" encoding="UTF-8"?>
<svg width="1440px" height="1715px" viewBox="0 0 1440 1715" version="1.1" xmlns="http://www.w3.org/2000/svg" xmlns:xlink="http://www.w3.org/1999/xlink">
    <!-- Generator: Sketch 52.3 (67297) - http://www.bohemiancoding.com/sketch -->
    <title>Grid</title>
    <desc>Created with Sketch.</desc>
    <g id="Article" stroke="none" stroke-width="1" fill="none" fill-rule="evenodd" opacity="0.07">
        <g id="Article---All-sections---Grain" transform="translate(0.000000, -7689.000000)" fill="#5517D0" fill-rule="nonzero">
            <g id="2.-Education" transform="translate(-123.000000, 4074.000000)">
                <g id="Grid" transform="translate(0.000000, 3615.000000)">
                    <g id="Group-15" transform="translate(258.000000, 0.000000)">
                        <rect id="Rectangle" x="100" y="0" width="1" height="1715"></rect>
                        <rect id="Rectangle" x="0" y="0" width="1" height="1715"></rect>
                        <rect id="Rectangle" x="201" y="0" width="1" height="1715"></rect>
                        <rect id="Rectangle" x="301" y="0" width="1" height="1715"></rect>
                        <rect id="Rectangle" x="402" y="0" width="1" height="1715"></rect>
                        <rect id="Rectangle" x="501" y="0" width="1" height="1715"></rect>
                        <rect id="Rectangle" x="600" y="0" width="1" height="1715"></rect>
                        <rect id="Rectangle" x="699" y="0" width="1" height="1715"></rect>
                        <rect id="Rectangle" x="799" y="0" width="1" height="1715"></rect>
                        <rect id="Rectangle" x="899" y="0" width="1" height="1715"></rect>
                        <rect id="Rectangle" x="999" y="0" width="1" height="1715"></rect>
                        <rect id="Rectangle" x="1099" y="0" width="1" height="1715"></rect>
                        <rect id="Rectangle" x="1199" y="0" width="1" height="1715"></rect>
                    </g>
                    <g id="Group-15" transform="translate(858.000000, 1297.500000) rotate(-270.000000) translate(-858.000000, -1297.500000) translate(508.000000, 440.000000)">
                        <rect id="Rectangle" x="0" y="0" width="1" height="1715"></rect>
                        <rect id="Rectangle" x="101" y="0" width="1" height="1715"></rect>
                        <rect id="Rectangle" x="201" y="0" width="1" height="1715"></rect>
                        <rect id="Rectangle" x="302" y="0" width="1" height="1715"></rect>
                        <rect id="Rectangle" x="401" y="0" width="1" height="1715"></rect>
                        <rect id="Rectangle" x="500" y="0" width="1" height="1715"></rect>
                        <rect id="Rectangle" x="599" y="0" width="1" height="1715"></rect>
                        <rect id="Rectangle" x="699" y="0" width="1" height="1715"></rect>
                    </g>
                    <g id="Group-15" transform="translate(980.500000, 458.500000) rotate(-270.000000) translate(-980.500000, -458.500000) translate(581.000000, -399.000000)">
                        <rect id="Rectangle" x="-9.09494702e-13" y="0" width="1" height="1715"></rect>
                        <rect id="Rectangle" x="101" y="0" width="1" height="1715"></rect>
                        <rect id="Rectangle" x="200" y="0" width="1" height="1715"></rect>
                        <rect id="Rectangle" x="299" y="0" width="1" height="1715"></rect>
                        <rect id="Rectangle" x="398" y="0" width="1" height="1715"></rect>
                        <rect id="Rectangle" x="498" y="0" width="1" height="1715"></rect>
                        <rect id="Rectangle" x="598" y="0" width="1" height="1715"></rect>
                        <rect id="Rectangle" x="698" y="0" width="1" height="1715"></rect>
                        <rect id="Rectangle" x="798" y="0" width="1" height="1715"></rect>
                    </g>
                </g>
            </g>
        </g>
    </g>
</svg>