<svg height="22" viewBox="0 0 16 22" width="16" xmlns="http://www.w3.org/2000/svg"><path d="m14.8571429 6.6c0-3.641-3.0742858-6.6-6.8571429-6.6-3.78285714 0-6.85714286 2.959-6.85714286 6.6 0 3.839 4.13714286 9.009 5.97714286 11.132.45714286.528 1.29142857.528 1.74857143 0 1.85142857-2.123 5.98857147-7.293 5.98857147-11.132zm-9.14285719 0c0-1.21 1.02857143-2.2 2.28571429-2.2s2.2857143.99 2.2857143 2.2-1.01714287 2.2-2.2857143 2.2c-1.25714286 0-2.28571429-.99-2.28571429-2.2zm-5.71428571 14.3c0 .605.51428571 1.1 1.14285714 1.1h13.71428576c.6285714 0 1.1428571-.495 1.1428571-1.1s-.5142857-1.1-1.1428571-1.1h-13.71428576c-.62857143 0-1.14285714.495-1.14285714 1.1z" fill="#fff"/></svg>