<svg height="20" viewBox="0 0 14 20" width="14" xmlns="http://www.w3.org/2000/svg" xmlns:xlink="http://www.w3.org/1999/xlink"><linearGradient id="a" x1="72.727618%" x2="25.888451%" y1="2.077095%" y2="99.207243%"><stop offset="0" stop-color="#fc7d7b"/><stop offset="1" stop-color="#fc7d7b"/></linearGradient><path d="m13 6c0-3.31-2.69-6-6-6s-6 2.69-6 6c0 3.49 3.62 8.19 5.23 10.12.4.48 1.13.48 1.53 0 1.62-1.93 5.24-6.63 5.24-10.12zm-8 0c0-1.1.9-2 2-2s2 .9 2 2-.89 2-2 2c-1.1 0-2-.9-2-2zm-5 13c0 .55.45 1 1 1h12c.55 0 1-.45 1-1s-.45-1-1-1h-12c-.55 0-1 .45-1 1z" fill="url(#a)"/></svg>