<svg xmlns="http://www.w3.org/2000/svg" viewBox="0 0 60 60">
  <path fill="none" stroke="#333" stroke-width="1.9" d="M27.9 20.8L15.4 5.3M29.9 21.6L43.1 5"/>
  <path fill="#7f7f7f" fill-rule="evenodd" stroke="#333" stroke-width="1.9" d="M17 5.2a1.4 1.4 0 1 0-2.9 0 1.4 1.4 0 1 0 2.8 0h-1.4zM44.2 4.9a1.4 1.4 0 1 0-2.8 0 1.4 1.4 0 1 0 2.8 0h-1.4z"/>
  <path fill="#7f7f7f" fill-rule="evenodd" stroke="#333" stroke-linecap="round" stroke-linejoin="round" stroke-width="3.1" d="M5.4 18.3h49.3a2 2 0 0 1 2 2v33.3a2 2 0 0 1-2 2H5.4a2 2 0 0 1-2-2V20.3a2 2 0 0 1 2-2"/>
  <path fill-rule="evenodd" stroke="#333" stroke-linecap="round" stroke-linejoin="round" stroke-width="2" d="M7 21.3h40.4v32.2H7z" transform="matrix(.94877 0 0 .92989 1 2.2)"/>
  <path fill="#666" fill-rule="evenodd" stroke="#333" stroke-linecap="round" stroke-linejoin="round" stroke-width="1.208857" d="M21.9 42.8c-3.4 1.8-5.4 5.3-6.7 9h23.5a16 16 0 0 0-6-9H21.8z"/>
  <path fill="#b3b3b3" fill-rule="evenodd" stroke="#333" stroke-linecap="round" stroke-linejoin="round" stroke-width="1.2392" d="M36.2 35.8a9.5 9.5 0 1 0-19 0 9.5 9.5 0 1 0 19 0h-9.5z"/>
  <path fill="#b3b3b3" fill-rule="evenodd" stroke="#333" stroke-width="1.3" d="M53.6 24.1a2.4 2.4 0 1 0-4.9 0 2.4 2.4 0 1 0 4.9 0h-2.4zM53.6 31.2a2.4 2.4 0 1 0-4.9 0 2.4 2.4 0 1 0 4.9 0h-2.4zM53.6 38.3a2.4 2.4 0 1 0-4.9 0 2.4 2.4 0 1 0 4.9 0h-2.4z"/>
</svg>
